<?xml version="1.0"?><svg width="468" height="468" xmlns="http://www.w3.org/2000/svg">
 <title>sakura blossom - alice</title>
 <g>
  <title>Layer 1</title>
  <g transform="rotate(-0.0784191)" id="svg_4">
   <path d="m307.245636,119.66185c18.512573,-50.361458 -24.511597,-116.219953 -37.030365,-117.511036c-18.512665,16.787601 -18.512665,16.787601 -37.025284,33.574768c-18.51268,-16.787167 -18.51268,-16.787167 -37.025284,-33.574768c-10.136429,6.753588 -55.542999,67.149578 -37.030441,120.833797c-47.100899,-28.202217 -129.47007,-16.6502 -134.691557,-6.255974c11.88603,21.152832 11.88603,21.152832 23.772596,42.305695c-23.328491,10.780762 -23.328491,10.780762 -46.656985,21.556778c3.952407,10.824036 54.602248,66.992783 113.145655,73.306442c-47.624054,37.588501 -56.84235,103.965851 -47.55423,111.683594c25.860016,-3.71701 25.860016,-3.71701 51.717018,-7.42926c4.097061,23.451385 4.097061,23.451385 8.194183,46.897919c12.574402,-0.062531 85.385757,-36.054565 106.129044,-77.287964c20.74321,59.986725 95.168137,82.245575 106.129013,76.619537c4.097107,-23.446472 4.097107,-23.446472 8.189026,-46.897827c25.862122,3.71701 25.862122,3.71701 51.380249,6.775238c3.480011,-11.521271 2.57959,-81.884949 -37.637299,-120.68515c65.947479,-7.525375 106.083466,-52.937424 103.569611,-64.131775c-23.327942,-10.780807 -23.327942,-10.780807 -46.655884,-21.556778c11.886475,-21.152817 11.886475,-21.152817 23.773071,-42.307159c-10.217377,-6.651176 -87.591156,-27.146698 -134.692139,4.382118" stroke-width="1.9288" stroke="#ffffff" fill="#ffaaaa" id="path572"/>
   <path d="m294.908905,133.669159c15.427185,-41.970993 -20.424652,-96.853001 -30.854401,-97.929134c-15.427185,13.989536 -15.427185,13.989536 -30.854431,27.979053c-15.4272,-13.989517 -15.4272,-13.989517 -30.854431,-27.979053c-8.446945,5.627941 -46.286682,55.958141 -30.85936,100.698879c-39.250961,-23.505615 -107.891838,-13.87751 -112.24337,-5.217316c9.905823,17.62825 9.905823,17.62825 19.811539,35.256348c-19.440765,8.982468 -19.440765,8.982468 -38.881508,17.964813c3.293743,9.020813 45.502602,55.822525 94.287994,61.083115c-39.685905,31.327744 -47.369064,86.640671 -39.630173,93.074478c21.552498,-3.09671 21.552498,-3.09671 43.100021,-6.193481c3.414169,19.542023 3.414169,19.542023 6.828415,39.083984c10.480408,-0.052887 71.152283,-30.048676 88.440872,-64.410614c17.283585,49.989716 79.305939,68.541138 88.440857,63.852844c3.414246,-19.542023 3.414246,-19.542023 6.823395,-39.079163c21.552551,3.091888 21.552551,3.091888 42.816772,5.640411c2.903381,-9.597839 2.149719,-68.233368 -31.365234,-100.570953c54.956238,-6.27037 88.405487,-44.113724 86.311432,-53.442322c-19.443329,-8.982437 -19.443329,-8.982437 -38.881622,-17.959961c9.903748,-17.628174 9.903748,-17.628174 19.807526,-35.256348c-8.507751,-5.544273 -72.993439,-22.62429 -112.244293,3.649719" stroke-width="1.4644" stroke="#ffaaaa" fill="#ffffff" id="path566"/>
   <path d="m338.029236,231.778259l-100.008774,-17.137772l-5.285706,89.554642l-5.012558,-89.270889l-92.259766,28.043518l88.764542,-36.472977l-53.271851,-75.441452l61.415421,69.950089l62.82666,-69.950089l-54.303757,74.984741l97.135788,25.740189z" fill-rule="evenodd" fill="#ffaaaa" id="path569"/>
   <path d="m165.239426,193.261627l64.642609,11.078949l3.41925,-57.890228l3.242188,57.707443l59.629929,-18.12822l-57.373932,23.571594l34.435516,48.768402l-39.696014,-45.214935l-40.611526,45.214935l35.098206,-48.470367l-62.786224,-16.637573z" fill-rule="evenodd" fill="#ffaaaa" id="path570"/>
   <path d="m264.100037,203.6866a30.855774,27.979126 0 1 1 -61.708862,0a30.855774,27.979126 0 1 1 61.708862,0z" stroke="#ffffff" fill-rule="evenodd" fill="#ffaaaa" id="path567"/>
   <path d="m185.249329,195.545761a9.410999,8.533604 0 1 1 -18.821167,0a9.410999,8.533604 0 1 1 18.821167,0z" stroke-width="1pt" fill-rule="evenodd" fill="#ffaaaa" id="path571"/>
   <path d="m241.535873,146.9841a9.410999,8.533604 0 1 1 -18.821213,0a9.410999,8.533604 0 1 1 18.821213,0z" stroke-width="1pt" fill-rule="evenodd" fill="#ffaaaa" id="path573"/>
   <path d="m304.236053,184.885117a9.410999,8.533604 0 1 1 -18.821228,0a9.410999,8.533604 0 1 1 18.821228,0z" stroke-width="1pt" fill-rule="evenodd" fill="#ffaaaa" id="path575"/>
   <path d="m208.880768,248.843719a9.410999,8.533604 0 1 1 -18.821167,0a9.410999,8.533604 0 1 1 18.821167,0z" stroke-width="1pt" fill-rule="evenodd" fill="#ffaaaa" id="path576"/>
   <path d="m282.025909,253.585007a9.410999,8.533604 0 1 1 -18.821167,0a9.410999,8.533604 0 1 1 18.821167,0z" stroke-width="1pt" fill-rule="evenodd" fill="#ffaaaa" id="path577"/>
  </g>
 </g>
</svg>